<svg width="345" height="78" viewBox="0 0 345 78" fill="none" xmlns="http://www.w3.org/2000/svg">
<path fill-rule="evenodd" clip-rule="evenodd" d="M253.278 41.1661H252.228L238.566 1.5481H222.564V3.1861L241.836 58.5121H263.088L282.366 3.1861V1.5481H267.06L253.272 41.1661H253.278Z" fill="#010110"/>
<path d="M218.304 1.5481H202.392V58.5061H218.304V1.5481Z" fill="#010110"/>
<path fill-rule="evenodd" clip-rule="evenodd" d="M329.634 1.54213H329.646L315.858 41.1721H314.808L301.146 1.54813H285.144V3.19813L306.078 63.3061H286.254V76.5001H305.628C313.902 76.5001 320.346 73.7101 323.472 64.8061C323.892 63.6181 344.94 3.18613 344.94 3.18613V1.53613H329.634V1.54213Z" fill="#010110"/>
<path fill-rule="evenodd" clip-rule="evenodd" d="M121.302 0C114.066 0 107.304 3.684 103.086 10.608H102.108V1.608H86.9399V76.482H103.056V51.258H104.046C104.154 51.408 104.262 51.564 104.37 51.69C107.088 54.996 113.436 60.036 121.332 60.036C135.702 60.036 145.53 47.616 145.53 30.024C145.53 12.432 135.216 0 121.302 0ZM116.49 47.688C108.99 47.688 103.812 41.844 103.812 30.03C103.812 18.216 108.99 12.372 116.49 12.372C123.99 12.372 129.42 18.342 129.42 30.03C129.42 41.718 124.116 47.688 116.49 47.688Z" fill="#010110"/>
<path fill-rule="evenodd" clip-rule="evenodd" d="M185.502 1.54199C178.032 1.54199 173.238 2.78999 170.436 10.608H169.476V1.54799H146.406V14.628H151.554C153.252 14.628 154.086 15.228 154.302 16.62V27.492H154.362V58.512H170.478V28.296C170.478 20.472 172.602 15.678 180.426 15.678H197.31V1.54199H185.508H185.502Z" fill="#010110"/>
<path d="M30 60.0181C46.566 60.0181 60 46.5841 60 30.0181C60 13.4521 46.566 0.0180664 30 0.0180664C13.434 0.0180664 0 13.4521 0 30.0181C0 46.5841 13.434 60.0181 30 60.0181Z" fill="#010110"/>
<path d="M30 77.46C41.322 77.46 50.502 75.528 50.502 73.158C50.502 70.788 41.328 68.856 30 68.856C18.672 68.856 9.49805 70.788 9.49805 73.158C9.49805 75.528 18.672 77.46 30 77.46Z" fill="#010110"/>
</svg>
