<svg width="144" height="13" viewBox="0 0 144 13" fill="none" xmlns="http://www.w3.org/2000/svg">
<path fill-rule="evenodd" clip-rule="evenodd" d="M129.325 7.49849H129.168L127.118 1.55579H124.717V1.80149L127.608 10.1004H130.796L133.687 1.80149V1.55579H131.391L129.323 7.49849H129.325Z" fill="#010110"/>
<path d="M124.079 1.55579H121.693V10.0995H124.079V1.55579Z" fill="#010110"/>
<path fill-rule="evenodd" clip-rule="evenodd" d="M140.779 1.55493H140.781L138.712 7.49943H138.555L136.505 1.55673H134.104V1.80423L137.245 10.8204H134.271V12.7995H137.177C138.418 12.7995 139.385 12.381 139.854 11.0454C139.917 10.8672 143.074 1.80243 143.074 1.80243V1.55493H140.778H140.779Z" fill="#010110"/>
<path fill-rule="evenodd" clip-rule="evenodd" d="M109.529 1.32361C108.444 1.32361 107.429 1.87621 106.797 2.91481H106.65V1.56481H104.375V12.7959H106.792V9.01231H106.941C106.957 9.03481 106.973 9.05821 106.989 9.07711C107.397 9.57301 108.349 10.329 109.534 10.329C111.689 10.329 113.163 8.46601 113.163 5.82721C113.163 3.18841 111.616 1.32451 109.529 1.32451V1.32361ZM108.807 8.47681C107.682 8.47681 106.906 7.60021 106.906 5.82811C106.906 4.05601 107.682 3.17941 108.807 3.17941C109.932 3.17941 110.747 4.07491 110.747 5.82811C110.747 7.58131 109.951 8.47681 108.807 8.47681Z" fill="#010110"/>
<path fill-rule="evenodd" clip-rule="evenodd" d="M119.159 1.55493C118.039 1.55493 117.319 1.74213 116.899 2.91483H116.755V1.55583H113.295V3.51783H114.067C114.322 3.51783 114.447 3.60783 114.479 3.81663V5.44743H114.488V10.1004H116.905V5.56803C116.905 4.39443 117.224 3.67533 118.398 3.67533H120.93V1.55493H119.16H119.159Z" fill="#010110"/>
<path d="M91.8387 10.3236C94.3245 10.3236 96.3387 8.30941 96.3387 5.82361C96.3387 3.33781 94.3245 1.32361 91.8387 1.32361C89.3529 1.32361 87.3387 3.33781 87.3387 5.82361C87.3387 8.30941 89.3529 10.3236 91.8387 10.3236Z" fill="#010110"/>
<path d="M91.8387 12.9408C93.537 12.9408 94.914 12.6519 94.914 12.2937C94.914 11.9355 93.537 11.6466 91.8387 11.6466C90.1404 11.6466 88.7634 11.9355 88.7634 12.2937C88.7634 12.6519 90.1404 12.9408 91.8387 12.9408Z" fill="#010110"/>
<path d="M0.926086 10.0968V0.599976H4.31188C5.05078 0.599976 5.66279 0.734976 6.14789 1.00318C6.63299 1.27138 6.99658 1.63948 7.23778 2.10478C7.47898 2.57008 7.59958 3.09298 7.59958 3.67438C7.59958 4.25578 7.47807 4.78408 7.23597 5.24938C6.99297 5.71468 6.62848 6.08278 6.14158 6.35278C5.65468 6.62368 5.04269 6.75868 4.30739 6.75868H1.97908V5.54368H4.17778C4.64488 5.54368 5.02289 5.46268 5.31359 5.30068C5.60429 5.13868 5.81757 4.91638 5.95347 4.63468C6.08937 4.35388 6.15778 4.03348 6.15778 3.67438C6.15778 3.31528 6.08937 2.99758 5.95347 2.71948C5.81757 2.44138 5.60338 2.22358 5.31088 2.06518C5.01928 1.90768 4.63408 1.82848 4.15888 1.82848H2.35978V10.0968H0.926987H0.926086Z" fill="#010110"/>
<path d="M9.162 10.0968V2.97424H10.5021V4.10554H10.5759C10.7055 3.72214 10.935 3.41974 11.2644 3.19924C11.5938 2.97784 11.9664 2.86804 12.384 2.86804C12.4704 2.86804 12.573 2.87074 12.6927 2.87704C12.8115 2.88334 12.9051 2.89054 12.9735 2.90044V4.22704C12.9177 4.21174 12.8187 4.19374 12.6765 4.17394C12.5343 4.15324 12.3921 4.14424 12.2499 4.14424C11.9223 4.14424 11.6307 4.21264 11.376 4.35034C11.1213 4.48804 10.9188 4.67794 10.7703 4.92094C10.6218 5.16394 10.548 5.43934 10.548 5.74894V10.0986H9.1611L9.162 10.0968Z" fill="#010110"/>
<path d="M16.92 10.2408C16.2522 10.2408 15.6699 10.0878 15.1722 9.78177C14.6745 9.47577 14.2875 9.04737 14.013 8.49747C13.7376 7.94667 13.5999 7.30407 13.5999 6.56787C13.5999 5.83167 13.7376 5.18277 14.013 4.62927C14.2884 4.07577 14.6745 3.64647 15.1722 3.34047C15.6699 3.03447 16.2522 2.88147 16.92 2.88147C17.5878 2.88147 18.1701 3.03447 18.6687 3.34047C19.1664 3.64647 19.5525 4.07577 19.8279 4.62927C20.1033 5.18277 20.241 5.82897 20.241 6.56787C20.241 7.30677 20.1033 7.94667 19.8279 8.49747C19.5525 9.04827 19.1664 9.47577 18.6687 9.78177C18.171 10.0878 17.5887 10.2408 16.92 10.2408ZM16.9254 9.07707C17.3583 9.07707 17.7165 8.96277 18.0009 8.73417C18.2853 8.50557 18.4959 8.20047 18.6336 7.82067C18.7713 7.43997 18.8397 7.02147 18.8397 6.56337C18.8397 6.10527 18.7704 5.69037 18.6336 5.30877C18.4959 4.92627 18.2853 4.62027 18.0009 4.38807C17.7165 4.15677 17.3574 4.04067 16.9254 4.04067C16.4934 4.04067 16.128 4.15677 15.8427 4.38807C15.5565 4.62027 15.345 4.92717 15.2073 5.30877C15.0696 5.69037 15.0012 6.10887 15.0012 6.56337C15.0012 7.01787 15.0705 7.43997 15.2073 7.82067C15.345 8.20047 15.5565 8.50557 15.8427 8.73417C16.1289 8.96277 16.4898 9.07707 16.9254 9.07707Z" fill="#010110"/>
<path d="M25.11 2.97422V4.08662H21.2193V2.97422H25.11ZM22.2624 1.26782H23.6493V8.00612C23.6493 8.27522 23.6889 8.47682 23.7699 8.61182C23.85 8.74592 23.9544 8.83772 24.0831 8.88542C24.2118 8.93312 24.3513 8.95742 24.5025 8.95742C24.6141 8.95742 24.7113 8.94932 24.795 8.93402C24.8787 8.91872 24.9435 8.90612 24.9894 8.89712L25.2396 10.0419C25.1595 10.0734 25.0452 10.1049 24.8967 10.1373C24.7482 10.1697 24.5628 10.1877 24.3405 10.1904C23.976 10.1967 23.6358 10.1319 23.3199 9.99512C23.0049 9.85922 22.7493 9.64952 22.5549 9.36422C22.3596 9.07982 22.2633 8.72252 22.2633 8.29322V1.26782H22.2624Z" fill="#010110"/>
<path d="M29.6361 10.2407C28.9341 10.2407 28.3302 10.0904 27.8253 9.78892C27.3195 9.48742 26.9307 9.06262 26.6562 8.51362C26.3826 7.96462 26.2458 7.32112 26.2458 6.58222C26.2458 5.84332 26.3826 5.20972 26.6562 4.65352C26.9298 4.09732 27.3132 3.66262 27.8064 3.35032C28.2996 3.03802 28.8765 2.88232 29.5389 2.88232C29.9403 2.88232 30.33 2.94892 30.708 3.08212C31.0851 3.21442 31.4235 3.42322 31.7232 3.70762C32.0229 3.99202 32.2596 4.36012 32.4324 4.81372C32.6052 5.26642 32.6916 5.81632 32.6916 6.46252V6.95392H27.0297V5.91442H31.3335C31.3335 5.54992 31.2597 5.22592 31.1112 4.94332C30.9627 4.65982 30.7548 4.43662 30.4875 4.27282C30.2202 4.10902 29.907 4.02712 29.5488 4.02712C29.1591 4.02712 28.8198 4.12252 28.5309 4.31242C28.242 4.50232 28.0197 4.74982 27.8631 5.05492C27.7065 5.36002 27.6291 5.68942 27.6291 6.04492V6.85672C27.6291 7.33282 27.7137 7.73782 27.882 8.07172C28.0503 8.40562 28.2861 8.66032 28.5894 8.83402C28.8918 9.00862 29.2464 9.09592 29.6514 9.09592C29.9142 9.09592 30.1536 9.05722 30.3705 8.98252C30.5874 8.90692 30.7737 8.79352 30.9312 8.64142C31.0887 8.49022 31.2093 8.30302 31.293 8.08072L32.6052 8.31652C32.4999 8.70352 32.3118 9.04102 32.0418 9.32992C31.7709 9.61882 31.4325 9.84292 31.0266 10.0022C30.6198 10.1615 30.1572 10.2407 29.6379 10.2407H29.6361Z" fill="#010110"/>
<path d="M37.2366 10.2407C36.5472 10.2407 35.9541 10.0841 35.4582 9.77002C34.9623 9.45592 34.5807 9.02302 34.3152 8.46952C34.0488 7.91692 33.9165 7.28242 33.9165 6.56872C33.9165 5.85502 34.0524 5.20612 34.3242 4.65082C34.596 4.09552 34.9794 3.66262 35.4744 3.35032C35.9694 3.03802 36.5517 2.88232 37.2231 2.88232C37.764 2.88232 38.2464 2.98222 38.6703 3.18112C39.0933 3.38092 39.4362 3.65992 39.6972 4.01812C39.9582 4.37632 40.1139 4.79572 40.1634 5.27542H38.8143C38.7405 4.94152 38.5713 4.65442 38.3067 4.41322C38.0421 4.17202 37.6893 4.05142 37.2474 4.05142C36.8604 4.05142 36.5229 4.15222 36.234 4.35472C35.9451 4.55722 35.7201 4.84522 35.559 5.21692C35.3979 5.58952 35.3178 6.02962 35.3178 6.53632C35.3178 7.04302 35.397 7.50382 35.5545 7.88182C35.712 8.25892 35.9352 8.55142 36.225 8.75842C36.5139 8.96542 36.855 9.06892 37.2474 9.06892C37.5102 9.06892 37.7487 9.02032 37.9638 8.92312C38.1789 8.82592 38.3598 8.68552 38.5065 8.50372C38.6532 8.32192 38.7558 8.10142 38.8152 7.84492H40.1643C40.1148 8.30572 39.9645 8.71702 39.7143 9.07882C39.4641 9.44062 39.1293 9.72502 38.7099 9.93202C38.2914 10.139 37.8 10.2425 37.2375 10.2425L37.2366 10.2407Z" fill="#010110"/>
<path d="M44.9766 2.97422V4.08662H41.0859V2.97422H44.9766ZM42.129 1.26782H43.5159V8.00612C43.5159 8.27522 43.5564 8.47682 43.6365 8.61182C43.7166 8.74592 43.821 8.83772 43.9497 8.88542C44.0784 8.93312 44.2179 8.95742 44.3691 8.95742C44.4807 8.95742 44.5779 8.94932 44.6607 8.93402C44.7444 8.91872 44.8092 8.90612 44.856 8.89712L45.1062 10.0419C45.0252 10.0734 44.9109 10.1049 44.7633 10.1373C44.6148 10.1697 44.4294 10.1877 44.2071 10.1904C43.8426 10.1967 43.5024 10.1319 43.1865 9.99512C42.8715 9.85922 42.6159 9.64952 42.4215 9.36422C42.2271 9.07982 42.1299 8.72252 42.1299 8.29322V1.26782H42.129Z" fill="#010110"/>
<path d="M49.5027 10.2407C48.8007 10.2407 48.1977 10.0904 47.6919 9.78892C47.1861 9.48742 46.7973 9.06262 46.5228 8.51362C46.2492 7.96462 46.1124 7.32112 46.1124 6.58222C46.1124 5.84332 46.2492 5.20972 46.5228 4.65352C46.7964 4.09732 47.1798 3.66262 47.673 3.35032C48.1662 3.03802 48.7431 2.88232 49.4055 2.88232C49.8078 2.88232 50.1966 2.94892 50.5746 3.08212C50.9517 3.21442 51.2901 3.42322 51.5898 3.70762C51.8895 3.99202 52.1262 4.36012 52.299 4.81372C52.4718 5.26642 52.5582 5.81632 52.5582 6.46252V6.95392H46.8963V5.91442H51.2001C51.2001 5.54992 51.1263 5.22592 50.9778 4.94332C50.8293 4.65982 50.6214 4.43662 50.3541 4.27282C50.0868 4.10902 49.7736 4.02712 49.4154 4.02712C49.0257 4.02712 48.6864 4.12252 48.3975 4.31242C48.1086 4.50232 47.8863 4.74982 47.7297 5.05492C47.5731 5.35912 47.4957 5.68942 47.4957 6.04492V6.85672C47.4957 7.33282 47.5803 7.73782 47.7486 8.07172C47.9169 8.40562 48.1527 8.66032 48.456 8.83402C48.7593 9.00772 49.113 9.09592 49.518 9.09592C49.7808 9.09592 50.0202 9.05722 50.2371 8.98252C50.4531 8.90692 50.6403 8.79352 50.7978 8.64142C50.9553 8.48932 51.0759 8.30302 51.1596 8.08072L52.4718 8.31652C52.3665 8.70352 52.1784 9.04102 51.9084 9.32992C51.6384 9.61882 51.2991 9.84292 50.8932 10.0022C50.4864 10.1615 50.0238 10.2407 49.5045 10.2407H49.5027Z" fill="#010110"/>
<path d="M56.7693 10.2363C56.1942 10.2363 55.6821 10.0887 55.2321 9.79348C54.7821 9.49828 54.4293 9.07618 54.1746 8.52718C53.9199 7.97818 53.7921 7.31938 53.7921 6.54988C53.7921 5.78038 53.9208 5.12158 54.1791 4.57438C54.4374 4.02718 54.792 3.60778 55.2429 3.31708C55.6947 3.02638 56.2059 2.88148 56.7774 2.88148C57.2193 2.88148 57.5757 2.95528 57.8466 3.10198C58.1175 3.24868 58.3272 3.41968 58.4775 3.61408C58.6278 3.80848 58.7439 3.98038 58.8276 4.12888H58.9113V0.599976H60.2982V10.0977H58.9437V8.98978H58.8276C58.7439 9.14098 58.6242 9.31378 58.4685 9.50908C58.3128 9.70438 58.0986 9.87358 57.8259 10.0194C57.5541 10.1652 57.2013 10.2372 56.7684 10.2372L56.7693 10.2363ZM57.0753 9.05368C57.474 9.05368 57.8115 8.94748 58.0887 8.73598C58.365 8.52448 58.5756 8.23018 58.7196 7.85218C58.8636 7.47508 58.9347 7.03588 58.9347 6.53548C58.9347 6.03508 58.8636 5.60848 58.7214 5.23768C58.5792 4.86688 58.3704 4.57798 58.095 4.37008C57.8196 4.16308 57.4794 4.05958 57.0744 4.05958C56.6694 4.05958 56.3094 4.16758 56.0313 4.38358C55.7532 4.60048 55.5435 4.89478 55.4031 5.27008C55.2627 5.64358 55.1916 6.06568 55.1916 6.53548C55.1916 7.00528 55.2627 7.43998 55.4049 7.82068C55.5471 8.20048 55.7577 8.50198 56.0376 8.72248C56.3175 8.94298 56.6631 9.05368 57.0744 9.05368H57.0753Z" fill="#010110"/>
<path d="M65.8449 10.0968V0.599976H67.2318V4.12888H67.3155C67.3956 3.98038 67.5117 3.80938 67.6629 3.61408C67.8141 3.41878 68.0247 3.24868 68.2938 3.10198C68.5629 2.95528 68.9184 2.88148 69.3603 2.88148C69.9354 2.88148 70.4484 3.02728 70.9002 3.31708C71.352 3.60778 71.7066 4.02628 71.9649 4.57438C72.2232 5.12248 72.3519 5.78038 72.3519 6.54988C72.3519 7.31938 72.2232 7.97908 71.9667 8.52718C71.7102 9.07528 71.3574 9.49828 70.9092 9.79348C70.461 10.0887 69.9498 10.2363 69.3747 10.2363C68.9418 10.2363 68.589 10.1643 68.3154 10.0185C68.0418 9.87268 67.8276 9.70348 67.6728 9.50818C67.518 9.31288 67.3992 9.14008 67.3155 8.98888H67.1994V10.0968H65.8449ZM67.203 6.53548C67.203 7.03678 67.2759 7.47598 67.4208 7.85218C67.5657 8.22928 67.7763 8.52358 68.0517 8.73598C68.3271 8.94838 68.6637 9.05368 69.0624 9.05368C69.4611 9.05368 69.8229 8.94298 70.101 8.72248C70.3791 8.50198 70.5906 8.20048 70.7337 7.82068C70.8777 7.43998 70.9488 7.01248 70.9488 6.53548C70.9488 6.05848 70.8786 5.64358 70.7382 5.27008C70.5978 4.89568 70.3872 4.60048 70.1073 4.38358C69.8274 4.16758 69.4791 4.05958 69.0615 4.05958C68.6439 4.05958 68.3199 4.16308 68.0436 4.37008C67.7673 4.57708 67.5576 4.86598 67.4154 5.23768C67.2732 5.60848 67.2021 6.04138 67.2021 6.53548H67.203Z" fill="#010110"/>
<path d="M74.5308 12.75C74.3238 12.75 74.1348 12.7338 73.9647 12.7014C73.7946 12.669 73.6677 12.6339 73.584 12.597L73.9179 11.4612C74.2986 11.5665 74.6172 11.5746 74.8755 11.4864C75.1338 11.3982 75.3507 11.1237 75.5271 10.6629L75.699 10.1904L73.0926 2.9751H74.5767L76.3803 8.5029H76.4541L78.2577 2.9751L79.7553 2.9886L76.8105 11.0481C76.6746 11.4162 76.5018 11.7267 76.2912 11.9805C76.0806 12.2343 75.8304 12.426 75.5397 12.5556C75.249 12.6861 74.9124 12.7509 74.529 12.7509L74.5308 12.75Z" fill="#010110"/>
</svg>
